<svg xmlns="http://www.w3.org/2000/svg" xmlns:xlink="http://www.w3.org/1999/xlink" width="25" height="23" viewBox="0 0 25 23"><defs><path id="hi3qa" d="M431.54 2408.06c-.33.18-1.34.56-2.27.65.6-.33 1.49-1.4 1.7-2.24a6.6 6.6 0 0 1-2.55.91 4.21 4.21 0 0 0-2.97-1.4c-2.27 0-3.92 1.97-3.92 4.25 0 .32.03.62.1.92a11.9 11.9 0 0 1-8.64-4.43 4.34 4.34 0 0 0 1.24 5.6c-.48.04-1.37-.06-1.8-.47a3.97 3.97 0 0 0 3.18 4.03c-.49.26-1.34.19-1.71.13.13 1.22 1.82 2.8 3.66 2.8-.65.77-3.13 2.16-5.91 1.71a12.29 12.29 0 0 0 6.42 1.83c6.62 0 12.05-5.4 11.77-12.04v-.03-.05-.06a6.71 6.71 0 0 0 1.7-2.11z"/><mask id="hi3qc" width="2.02" height="2.02" x="-1.01" y="-1.01"><path fill="#0000" d="M410.8 2404.8h21.4v18.4h-21.4z"/><use xlink:href="#hi3qa"/></mask><filter id="hi3qb" width="47.2" height="47.2" x="397.9" y="2391.9" filterUnits="userSpaceOnUse"><feOffset dy="3" in="SourceGraphic" result="FeOffset1096Out"/><feGaussianBlur in="FeOffset1096Out" result="FeGaussianBlur1097Out" stdDeviation="1.16 1.16"/></filter></defs><g><g transform="translate(-409 -2406)"><g filter="url(#hi3qb)"><use fill="none" stroke="#000" stroke-opacity=".25" stroke-width=".4" mask="url(&quot;#hi3qc&quot;)" xlink:href="#hi3qa"/><use fill-opacity=".25" xlink:href="#hi3qa"/></g><use fill="#e74c3c" xlink:href="#hi3qa"/></g></g></svg>